<!DOCTYPE svg PUBLIC "-//W3C//DTD SVG 1.1//EN" "http://www.w3.org/Graphics/SVG/1.1/DTD/svg11.dtd">

<!-- Uploaded to: SVG Repo, www.svgrepo.com, Transformed by: SVG Repo Mixer Tools -->
<svg width="800px" height="800px" viewBox="-18.24 0 326.261 326.261" xmlns="http://www.w3.org/2000/svg" fill="#000000" stroke="#000000">

<g id="SVGRepo_bgCarrier" stroke-width="0"/>

<g id="SVGRepo_tracerCarrier" stroke-linecap="round" stroke-linejoin="round"/>

<g id="SVGRepo_iconCarrier">

<defs>

<style>.a{fill:#fdfaed;}.b{fill:#211715;}.c{fill:#e2de6a;}.d{fill:#242038;}</style>

</defs>

<path class="a" d="M72.937,174.615A194.4,194.4,0,0,0,64.5,157.076c-.219-.422-1.753-2.561-3.209-2.982a3.743,3.743,0,0,0-3.732.961,4.84,4.84,0,0,0-1.522,3.465,45.616,45.616,0,0,0,2.039,13.369c-7.749-1.04-23.268-8.406-31.544-12.781-1.988-1.05-3.966-2.253-6.2-2.569-2.3-.337-6.38,1.256-7.186,3.469-3.143-1.52-4.857-1.49-6.815-.746-2.324.887-3.006,1.814-3.465,3.129a5.647,5.647,0,0,0,.208,4.528,1.586,1.586,0,0,1,.2.632,1.318,1.318,0,0,1-.224.633A7.045,7.045,0,0,0,4.7,176.362a3.89,3.89,0,0,0,.413,4.567c5.992,6.8,27.4,19.294,39.632,24.01a5.464,5.464,0,0,1,1.877,1,5.388,5.388,0,0,1,1.213,2.172c.847,2.32,1.458,3.879,2.171,6.092,5.122-1.393,18.45-5.082,25.783-7.79a41.719,41.719,0,0,1-1.349-6.076s-.1-1.131-.17-2.006c1.457-7.578,2.135-15.117-.753-22.294Q73.221,175.3,72.937,174.615Z"/>

<path class="b" d="M6.648,177.831c.062-.445.042-.06-.109,0a1.789,1.789,0,0,1,.765-.153,8.2,8.2,0,0,1,2.57,1.151c2.23,1.115,4.445,2.258,6.677,3.368a83.334,83.334,0,0,0,13.564,5.687c2.971.869,4.239-3.761,1.276-4.628-5.459-1.6-10.546-4.243-15.6-6.806-1.291-.654-2.58-1.31-3.875-1.955a13.209,13.209,0,0,0-3.782-1.528c-2.415-.365-5.731.821-6.116,3.584A2.483,2.483,0,0,0,3.7,179.507a2.417,2.417,0,0,0,2.953-1.676Z"/>

<path class="b" d="M5.419,168.964c.254-.294.133-.159,0-.084.054-.03.564-.157.528-.152a2.108,2.108,0,0,1,1.144.092,32.858,32.858,0,0,1,3.47,1.6c2.659,1.275,5.322,2.525,8.023,3.71,4.79,2.1,9.522,4.343,14.365,6.321a2.415,2.415,0,0,0,2.953-1.676,2.46,2.46,0,0,0-1.676-2.952c-4.741-1.937-9.959-4.406-14.885-6.561-3.071-1.344-6.044-2.9-9.1-4.273a8.926,8.926,0,0,0-3.99-1.079,5.749,5.749,0,0,0-4.221,1.659,2.462,2.462,0,0,0,0,3.394,2.421,2.421,0,0,0,3.394,0Z"/>

<path class="b" d="M2.019,176.555c-1.166,4.354,2.259,7.22,5.285,9.661a107.809,107.809,0,0,0,9.873,6.984,168.26,168.26,0,0,0,23.234,12.528c1.017.441,2.04.873,3.071,1.281.9.358,1.494.474,1.912,1.4a67.862,67.862,0,0,1,2.83,8.15c.891,2.949,5.526,1.692,4.628-1.276-.717-2.373-1.558-4.7-2.414-7.021a12.953,12.953,0,0,0-1.5-3.278,7.037,7.037,0,0,0-3.387-2.3c-3.467-1.363-6.922-2.983-10.337-4.724a163.245,163.245,0,0,1-22.194-13.371,51.089,51.089,0,0,1-4.046-3.227c-1-.889-2.73-2.026-2.325-3.536.8-2.987-3.829-4.262-4.629-1.276Z"/>

<path class="b" d="M56.291,169.111c-6.214-1.5-12.172-4.155-17.954-6.835q-4.415-2.048-8.744-4.276c-3.055-1.574-6.232-3.792-9.778-3.9-3.579-.113-7.573,1.923-8.981,5.274l3.526-1.435c-3.63-1.706-7.359-2.219-10.9.056a6.944,6.944,0,0,0-2.907,3.762,8.362,8.362,0,0,0-.443,3.132,21.67,21.67,0,0,0,.855,3.305v-1.277c-.174.814-.662,1.577-.81,2.439a9.52,9.52,0,0,0-.1,2.68,9.951,9.951,0,0,0,2.51,5.6c2.047,2.322,5.431-1.084,3.394-3.394a4.7,4.7,0,0,1-.992-4.4c.343-1.037.907-1.89.6-3.083-.267-1.026-.809-1.761-.618-2.873a5.6,5.6,0,0,1,.241-.85c.044-.129.133-.329.029-.088.181-.419.108-.29.3-.488a5,5,0,0,1,1.741-.978c1.6-.567,3.017-.18,4.687.605a2.456,2.456,0,0,0,3.526-1.434c-.1.227.248-.216.3-.265a4.113,4.113,0,0,1,.754-.542,7.247,7.247,0,0,1,2.163-.832c1.6-.35,3.283.406,4.772,1.176,3.292,1.7,6.56,3.432,9.9,5.033,6.941,3.321,14.15,6.7,21.658,8.523,3,.727,4.282-3.9,1.276-4.628Z"/>

<path class="b" d="M11.937,162.08c3.973,1.862,7.79,4.06,11.748,5.962,4.556,2.188,8.977,4.651,13.461,6.98,2.738,1.423,5.168-2.718,2.423-4.144-4.484-2.33-8.905-4.793-13.462-6.981-3.958-1.9-7.774-4.1-11.747-5.962a2.47,2.47,0,0,0-3.284.861,2.42,2.42,0,0,0,.861,3.284Z"/>

<path class="b" d="M39.725,172.356q-6.47,5.382-12.391,11.373a2.4,2.4,0,0,0,3.394,3.394q5.914-5.983,12.391-11.373a2.409,2.409,0,0,0,0-3.394,2.465,2.465,0,0,0-3.394,0Z"/>

<path class="b" d="M32.057,188.334q3.51.074,7.011.336a32.423,32.423,0,0,1,6.061.805,11.155,11.155,0,0,1,7.042,5.984,2.425,2.425,0,0,0,3.284.861,2.451,2.451,0,0,0,.861-3.284,15.914,15.914,0,0,0-9.249-7.991,30.967,30.967,0,0,0-7.125-1.1c-2.623-.221-5.253-.352-7.885-.407-3.09-.064-3.089,4.736,0,4.8Z"/>

<path class="b" d="M72.038,200.336c.308,3.407,1.454,6.719,2.352,10a2.4,2.4,0,0,0,4.628-1.276c-.429-1.57-.885-3.132-1.3-4.706-.216-.822-.422-1.645-.6-2.475-.08-.367-.154-.734-.218-1.1a3.232,3.232,0,0,0-.083-.521s.073.662.048.349c-.007-.09-.019-.18-.027-.27a2.577,2.577,0,0,0-.7-1.7,2.4,2.4,0,0,0-4.1,1.7Z"/>

<path class="a" d="M48.5,214.613c3.5-.946,21.5-5.822,29.02-8.868.678,1.72,2.047,5.922,2.91,8.187l.2.485c-9.022,3.461-21.2,7.471-30.066,8.991l-.053-.173c-.853-2.767-2.08-7.7-2.367-8.526Z"/>

<path class="a" d="M236.7,81.218a7.251,7.251,0,0,1,5.8-1.7,6.85,6.85,0,0,1,4.923,3.273,9.677,9.677,0,0,1,1.013,3.894,29.01,29.01,0,0,1-2.958,15.378,18.429,18.429,0,0,1-4.767,6.257,12.223,12.223,0,0,1-5.685,2.562l-.973.151c-.467,1.746-.991,3.217-1.248,4-1.7,4.627-11.481,20.983-23.632,26.2-.021,3.276-.093,7.052,1.059,9.886.87,2.15,4.95,5.34,9.24,8.24,0,0-2.36,31.914-32.582,31.914s-30.068-32.124-30.068-32.124c4.58-2.84,8.83-5.93,9.68-8.03,1.12-2.782,1.069-6.446,1.05-9.677a41.59,41.59,0,0,1-15.242-11.915,49.422,49.422,0,0,1-9.452-18.53,11.656,11.656,0,0,1-7.488-2.67,18.445,18.445,0,0,1-4.768-6.257,29.02,29.02,0,0,1-2.958-15.378,9.694,9.694,0,0,1,1.014-3.894,6.85,6.85,0,0,1,4.923-3.273,7.252,7.252,0,0,1,5.8,1.7s2.1-45.8,50.1-45.8C238.819,35.416,236.7,81.218,236.7,81.218Z"/>

<path class="c" d="M248.439,86.687a9.677,9.677,0,0,0-1.013-3.894A6.85,6.85,0,0,0,242.5,79.52a7.251,7.251,0,0,0-5.8,1.7c-6.993-3.468-11.993-9.579-15.438-14.468-7.084-10.056-9.11-17.061-10.426-24.127-6.224,7.608-20.074,16.139-32.4,20.134a49.18,49.18,0,0,1-4.8,1.267,50.023,50.023,0,0,1-6.456,1.18,117.653,117.653,0,0,1-12.26,8.248c-2.605,1.54-12.387,6.042-15.9,7.475a7.239,7.239,0,0,0-5.435-1.407,6.85,6.85,0,0,0-4.923,3.273,9.694,9.694,0,0,0-1.014,3.894L124.6,83.169c-1-30.038,6.905-51.821,19.361-63.746,7.509-7.188,24.43-16.982,43.441-16.982,11.6,0,17.739,1.224,24.347,3.77l3.731,1.438,7,3.8c4.474,2.428,5.668,4.279,9.778,8.244,9.5,9.17,16.111,25.67,17.163,40.445.3,4.262,1,15.352.33,23.029Z"/>

<path class="c" d="M119.551,134.333a56.608,56.608,0,0,0-2.638,16.053c-.087,4.745.732,10.076,4.527,12.926a19.728,19.728,0,0,0,13.974,7.586l21.411-11.754c4.58-2.84,8.83-5.93,9.68-8.03,1.12-2.78,1.07-6.44,1.05-9.67a41.683,41.683,0,0,1-15.242-11.922,49.331,49.331,0,0,1-9.4-18.352l-1.853-.286a12.223,12.223,0,0,1-5.685-2.562,18.445,18.445,0,0,1-4.768-6.257,29.02,29.02,0,0,1-2.958-15.378L124.6,83.164c.01,21.89-1.66,37.68-4,46.65-.37,1.43-.73,3.09-1.07,4.87"/>

<path class="c" d="M249.755,83.164c.33,27.28,5.01,42.54,7.42,50.05a53.434,53.434,0,0,1,2.94,17.09c.06,7.53-5.92,16.13-14.5,18l-5.944,1.295-20.2-10.245c-4.29-2.9-8.37-6.09-9.24-8.24-1.152-2.833-1.08-6.609-1.059-9.887,12.152-5.211,21.927-21.567,23.632-26.194.257-.781.781-2.252,1.248-4l.973-.152a12.223,12.223,0,0,0,5.685-2.562,18.429,18.429,0,0,0,4.767-6.257,29.01,29.01,0,0,0,2.958-15.378Z"/>

<path class="b" d="M122.2,83.164c0,12.807-.349,25.954-2.378,38.5-.334,2.061-.719,4.115-1.2,6.148-.318,1.35-.675,2.69-.966,4.047-.412,1.922-1.023,3.781-1.486,5.692a59.58,59.58,0,0,0-1.627,11.888,26.27,26.27,0,0,0,1.083,9.436c2.415,7,10.712,11.922,17.967,11.83,3.087-.039,3.095-4.839,0-4.8a15.323,15.323,0,0,1-8.756-2.987,10.842,10.842,0,0,1-4.694-5.656,24.533,24.533,0,0,1-.759-8.77,53.123,53.123,0,0,1,1.767-11.042,145.078,145.078,0,0,0,3.32-14.647c.853-5.313,1.4-10.675,1.777-16.041.554-7.852.75-15.727.751-23.6,0-3.089-4.8-3.094-4.8,0Z"/>

<path class="b" d="M247.355,83.164a184.114,184.114,0,0,0,4.278,39.148c.825,3.558,1.81,7.074,2.913,10.555A74.925,74.925,0,0,1,257,142.113a31.935,31.935,0,0,1,.582,10.215,16.963,16.963,0,0,1-12.6,13.662c-3.01.691-1.736,5.32,1.276,4.628a21.591,21.591,0,0,0,14.689-12.811c2.842-6.772,1.467-14.874-.408-21.737-1.1-4.022-2.489-7.951-3.529-11.992a143.15,143.15,0,0,1-3.037-15.412,198.654,198.654,0,0,1-1.813-25.5c-.041-3.086-4.841-3.095-4.8,0Z"/>

<path class="b" d="M238.4,82.915a4.753,4.753,0,0,1,6.778.793A8.138,8.138,0,0,1,246.122,88a25.469,25.469,0,0,1-.3,5.263c-1.073,6.345-4.371,14.076-11.434,15.306a2.42,2.42,0,0,0-1.676,2.952,2.455,2.455,0,0,0,2.952,1.677c9.711-1.692,14.351-12.708,15.156-21.474.39-4.242.282-9.548-3.3-12.474a9.711,9.711,0,0,0-12.517.27,2.42,2.42,0,0,0,0,3.394,2.45,2.45,0,0,0,3.394,0Z"/>

<path class="b" d="M232.554,105.486a24.092,24.092,0,0,1-1.127,6.024c-.228.771-.48,1.535-.736,2.3-.078.233-.158.464-.238.7-.161.469-.1.235-.033.1a50.732,50.732,0,0,1-3.237,5.924,57.5,57.5,0,0,1-12.836,14.8,24.372,24.372,0,0,1-9.466,4.786c-3.009.694-1.736,5.323,1.276,4.628,7.306-1.685,13.425-6.942,18.242-12.459a62.653,62.653,0,0,0,10.014-14.913,32.1,32.1,0,0,0,2.941-11.878c.106-3.089-4.694-3.085-4.8,0Z"/>

<path class="b" d="M141.083,79.521a9.712,9.712,0,0,0-12.518-.27c-3.583,2.926-3.691,8.232-3.3,12.474.8,8.766,5.446,19.782,15.157,21.474a2.47,2.47,0,0,0,2.952-1.677,2.42,2.42,0,0,0-1.676-2.952c-7.064-1.23-10.361-8.961-11.435-15.306a25.611,25.611,0,0,1-.3-5.263,8.277,8.277,0,0,1,.946-4.293,4.747,4.747,0,0,1,6.778-.793,2.464,2.464,0,0,0,3.394,0,2.421,2.421,0,0,0,0-3.394Z"/>

<path class="b" d="M139.528,107.443c3.071,14.516,11.639,28.664,25.318,35.38a34.3,34.3,0,0,0,11.661,3.341,2.416,2.416,0,0,0,2.4-2.4,2.454,2.454,0,0,0-2.4-2.4c-13.461-1.4-24.472-13.04-29.314-25.052a60.77,60.77,0,0,1-3.036-10.145c-.639-3.02-5.267-1.742-4.629,1.276Z"/>

<path class="b" d="M212.383,3.9C203.633.547,194.074-.331,184.759.1a69.9,69.9,0,0,0-30.722,9.126,54.421,54.421,0,0,0-17.62,15.26,69.616,69.616,0,0,0-10.49,22.72c-3.2,11.664-4.114,23.907-3.731,35.96.1,3.081,4.9,3.094,4.8,0-.578-18.2,1.656-37.864,11.7-53.526a47.174,47.174,0,0,1,14.8-14.5,66.147,66.147,0,0,1,27.367-9.919A78.613,78.613,0,0,1,198.8,5.4a51.133,51.133,0,0,1,12.307,3.123,2.418,2.418,0,0,0,2.952-1.676A2.453,2.453,0,0,0,212.383,3.9Z"/>

<path class="b" d="M252.151,83.169A126.342,126.342,0,0,0,252.21,66.7a106.377,106.377,0,0,0-1.439-14.626c-2.077-11.125-6.633-22.252-13.938-30.981-1.922-2.3-4.129-4.346-6.246-6.459a30.618,30.618,0,0,0-6.895-5.259c-2.708-1.491-5.133,2.653-2.423,4.144a24.516,24.516,0,0,1,5.455,4.044c1.866,1.829,3.779,3.648,5.54,5.579a52.3,52.3,0,0,1,8.457,13.134,70.924,70.924,0,0,1,5.11,15.5,88.545,88.545,0,0,1,1.521,13.732,130.9,130.9,0,0,1,0,17.659,2.419,2.419,0,0,0,2.4,2.4,2.449,2.449,0,0,0,2.4-2.4Z"/>

<path class="b" d="M206.775,141.234a50.38,50.38,0,0,0,.209,6.337,12.522,12.522,0,0,0,1.69,5.667c2.372,3.425,6.2,5.888,9.589,8.188a2.4,2.4,0,1,0,2.423-4.144c-1.614-1.095-3.219-2.214-4.728-3.45-.661-.541-1.308-1.1-1.922-1.7-.268-.26-.53-.526-.78-.8-.127-.14-.25-.283-.371-.428-.245-.294.264.432-.066-.091-.145-.23-.29-.45-.413-.693-.132-.26.131.388-.006-.038-.072-.226-.152-.448-.218-.676a13.87,13.87,0,0,1-.449-2.294,53.655,53.655,0,0,1-.158-5.88c.019-3.089-4.781-3.093-4.8,0Z"/>

<path class="b" d="M165.155,141.444a51.44,51.44,0,0,1-.165,5.757,14.206,14.206,0,0,1-.482,2.362c-.067.222-.142.439-.219.658.054-.152.135-.232.016-.045-.084.133-.548.819-.212.393-2.189,2.771-5.51,4.655-8.48,6.5a2.4,2.4,0,1,0,2.423,4.144c1.939-1.206,3.852-2.459,5.668-3.846a20.629,20.629,0,0,0,4.277-4.045,11.19,11.19,0,0,0,1.7-5.211,47.924,47.924,0,0,0,.278-6.67c-.02-3.088-4.82-3.094-4.8,0Z"/>

<path class="b" d="M180.432,47.868a65.225,65.225,0,0,1-15.779,16.265A99.35,99.35,0,0,1,147.489,74.5q-2.475,1.17-4.973,2.3-1.093.493-2.194.978-.485.215-.971.424l-.338.145c-.7.3.4-.165-.24.1A2.48,2.48,0,0,0,137.1,81.4a2.414,2.414,0,0,0,2.952,1.676,147.062,147.062,0,0,0,15.812-7.4A97.7,97.7,0,0,0,175.9,60.808a62.443,62.443,0,0,0,8.676-10.517c1.691-2.6-2.463-5-4.144-2.423Z"/>

<path class="b" d="M177.794,60.443c-1.851.583-3.727,1.026-5.619,1.452-.847.191-1.7.381-2.548.541q-.65.122-1.3.22c-.126.019-.918.152-.261.04-.264.045-.535.067-.8.1a2.461,2.461,0,0,0-2.4,2.4c.053,1.176,1.065,2.556,2.4,2.4a64.355,64.355,0,0,0,11.807-2.522,2.4,2.4,0,1,0-1.276-4.629Z"/>

<path class="b" d="M208.974,41.127a55.049,55.049,0,0,1-13.413,10.94,83.425,83.425,0,0,1-17.767,8.376c-2.922.957-1.671,5.593,1.276,4.629a88.823,88.823,0,0,0,18.913-8.861c5.222-3.222,10.407-6.972,14.385-11.69a2.465,2.465,0,0,0,0-3.394,2.419,2.419,0,0,0-3.394,0Z"/>

<path class="b" d="M237.912,79.145c-7.2-3.637-12.4-10.057-16.68-16.73a55.637,55.637,0,0,1-7.877-19.34,2.4,2.4,0,1,0-4.628,1.276,57.21,57.21,0,0,0,5.508,15.626,69.187,69.187,0,0,0,11.719,16.237,37.281,37.281,0,0,0,9.536,7.076c2.75,1.39,5.183-2.75,2.422-4.145Z"/>

<path class="d" d="M287.372,323.861c-2.963-58.963-5.73-110.22-11.331-128.889-1.611-5.369-3.64-10.116-6.324-12.263s-7.148-3.574-10.251-5.073c-10.085-4.871-23.728-10.96-30.988-15.849l-1.208-.816c-.727-.595-1.476-1.185-2.243-1.777l-4.5-3.048c-4.466,18.328-12.117,38.924-18.53,56.8-4.853,13.529-8.477,23.276-13.406,37.041-4.492-12.428-9.469-25.5-13.9-37.838-6.393-17.821-13.237-38.231-19.179-55.908l-.08.056-4.592,3.111q-1.519,1.17-2.915,2.373l-.127.068c-9.4,5.04-21.16,8.27-30.82,12.94-2.97,1.43-6.46,2.11-8.71,4.52a25.211,25.211,0,0,0-5.24,8.55c-6.53,17.04-7.8,26.99-14.08,43.691-1.777-5.973-3.488-11.907-5.35-18.3-10.158,4.073-26.233,9.505-36.077,10.591,3.2,15.866,6.3,32.9,11.463,48.989,3.588,11.18,8.986,21.814,19.971,25.961a29,29,0,0,0,25.413-1.988c6.564-3.825,14.223-12.158,19.005-17.058,0,0,.7-.625,1.7-1.5.02.427.03.821.03,1.178,0,6.94-2.54,30.24-3.58,44.44Z"/>

<path class="a" d="M195.015,232.225c2.233-6.136,4.438-12.187,6.982-19.277,4.036-11.25,8.562-23.577,12.478-35.738a18.98,18.98,0,0,1-2.327.722c-7.221,2.872-17.739,4.04-25.131,4.022a101.58,101.58,0,0,1-23.18-3.331l-.421-.1c3.756,11.751,8.02,23.626,11.9,34.427q6.642,18.514,13.283,37.028C190.939,243.431,192.988,237.793,195.015,232.225Z"/>

<path class="b" d="M52.824,222.6c-.859-2.817-1.436-5.733-2.367-8.526l-1.676,2.952c4.221-1.143,8.436-2.311,12.635-3.532,5.62-1.633,11.306-3.245,16.741-5.431L75.2,206.383c1.048,2.7,1.886,5.478,2.91,8.187a2.467,2.467,0,0,0,2.952,1.676,2.419,2.419,0,0,0,1.677-2.952c-1.024-2.709-1.862-5.487-2.91-8.187-.427-1.1-1.652-2.2-2.953-1.676-5.434,2.187-11.12,3.8-16.74,5.432-4.2,1.221-8.414,2.388-12.635,3.532a2.425,2.425,0,0,0-1.677,2.952c.931,2.793,1.508,5.709,2.367,8.526.9,2.946,5.533,1.69,4.629-1.276Z"/>

<path class="b" d="M163.2,180.937a93.618,93.618,0,0,0,25.195,3.407c8.146-.133,16.763-1.112,24.392-4.1a2.472,2.472,0,0,0,1.676-2.952,2.418,2.418,0,0,0-2.952-1.676c-7.265,2.844-15.359,3.8-23.116,3.926a88.628,88.628,0,0,1-23.919-3.235c-2.989-.792-4.265,3.837-1.276,4.628Z"/>

<path class="b" d="M176.937,260.817a6.237,6.237,0,0,1,.738.786l-.375-.486a5.234,5.234,0,0,1,.6,1.013l-.242-.573a5.015,5.015,0,0,1,.339,1.22l-.086-.638a5.4,5.4,0,0,1,0,1.362l.086-.638a5.955,5.955,0,0,1-.393,1.437l.242-.573a4.906,4.906,0,0,1-.576,1.017l.375-.486a4.265,4.265,0,0,1-.758.749l.486-.375a5.191,5.191,0,0,1-1.076.615l.573-.242a6.061,6.061,0,0,1-1.4.375l.638-.085a6.437,6.437,0,0,1-1.635,0l.638.086a5.664,5.664,0,0,1-1.341-.357l.573.242a4.469,4.469,0,0,1-.913-.523l.485.375a5.451,5.451,0,0,1-.889-.888l.375.486a4.671,4.671,0,0,1-.595-1.017l.242.573a4.439,4.439,0,0,1-.258-.962l.086.638a4.747,4.747,0,0,1,0-1.167l-.086.638a5.8,5.8,0,0,1,.4-1.421l-.242.573a7.384,7.384,0,0,1,.925-1.549l-.375.486a4.48,4.48,0,0,1,.715-.735l-.486.375a4.844,4.844,0,0,1,.984-.575l-.573.242a5.715,5.715,0,0,1,1.441-.389l-.638.086a5.767,5.767,0,0,1,1.42,0l-.638-.086a5.138,5.138,0,0,1,1.169.313l-.574-.242a4.368,4.368,0,0,1,.955.557l-.486-.375c.054.042.106.085.157.13a2.552,2.552,0,0,0,1.7.7,2.4,2.4,0,0,0,1.7-4.1,7.131,7.131,0,0,0-4.585-1.75,7.542,7.542,0,0,0-4.183,1.145,8,8,0,0,0-3.357,8.064,6.949,6.949,0,0,0,2.863,4.062,7.775,7.775,0,0,0,10.757-2.454,7.766,7.766,0,0,0,.9-4.164,7.4,7.4,0,0,0-2.4-4.9,2.4,2.4,0,0,0-3.394,3.394Z"/>

<path class="b" d="M189.476,323.861c2-18.366,4.228-36.676,5.052-55.144a45.067,45.067,0,0,0-.273-8.373,40.645,40.645,0,0,0-2.511-8.677,2.468,2.468,0,0,0-2.952-1.676,2.418,2.418,0,0,0-1.677,2.952,42.883,42.883,0,0,1,2.345,7.612,33.667,33.667,0,0,1,.31,7.158c-.189,4.968-.542,9.932-.885,14.891-.616,8.911-1.6,17.783-2.582,26.66-.541,4.866-1.1,9.73-1.627,14.6a2.416,2.416,0,0,0,2.4,2.4,2.455,2.455,0,0,0,2.4-2.4Z"/>

<path class="b" d="M227.267,163.859a135.243,135.243,0,0,0,16.305,8.845c6.06,2.941,12.12,5.985,18.33,8.6,2.557,1.076,5.558,2.14,7.373,4.347a24.48,24.48,0,0,1,3.775,7.825,79.459,79.459,0,0,1,2.671,10.729c1.738,9.34,2.673,18.539,3.558,28.12,1.2,12.964,2.071,25.958,2.861,38.952,1.065,17.523,1.951,35.055,2.832,52.588.155,3.074,4.956,3.092,4.8,0-.8-15.921-1.607-31.842-2.543-47.756-.8-13.552-1.674-27.1-2.865-40.625-.894-10.149-1.9-20.323-3.625-30.37a95.754,95.754,0,0,0-2.2-10.135c-1.69-5.915-3.939-12.444-9.582-15.643-2.805-1.59-5.891-2.616-8.791-4.013-3.08-1.483-6.174-2.935-9.261-4.4-6.027-2.865-12.089-5.727-17.851-9.1-1.143-.668-2.268-1.364-3.368-2.1-2.575-1.722-4.981,2.434-2.423,4.145Z"/>

<path class="b" d="M218.127,155.889c-3.058,12.374-7.1,24.486-11.318,36.5-4.2,11.962-8.535,23.878-12.87,35.791q-3.624,9.959-7.219,19.928a2.422,2.422,0,0,0,1.676,2.952,2.449,2.449,0,0,0,2.952-1.676c8.595-23.953,17.8-47.735,25.579-71.971,2.147-6.69,4.143-13.43,5.828-20.252.742-3-3.886-4.278-4.628-1.276Z"/>

<path class="b" d="M206.21,244.566q9.054-12.936,17.487-26.293,4.264-6.762,8.363-13.627c2.667-4.469,5.448-8.93,7.86-13.543a4.478,4.478,0,0,0,.183-4.324,14.055,14.055,0,0,0-2.825-3.164c-2.124-2.092-4.331-4.1-6.548-6.088l-.485,3.77c1.979-1.175,3.93-2.4,5.95-3.509,1.964-1.074,4.766-1.974,4.044-4.847a16.39,16.39,0,0,0-2.846-4.989,39.639,39.639,0,0,0-3.7-4.4,75.352,75.352,0,0,0-12.049-9.541c-2.564-1.737-4.969,2.419-2.422,4.144l2.9,1.963a37.9,37.9,0,0,1,3.424,2.527,52.4,52.4,0,0,1,5.848,5.466,28.189,28.189,0,0,1,2.308,2.9q.5.728.952,1.484.254.423.491.853c.058.1.388.836.386.621l.328-1.211-.164.258.861-.861a41.74,41.74,0,0,1-4.2,2.285c-1.523.882-3.02,1.81-4.534,2.708a2.421,2.421,0,0,0-.486,3.769c1.809,1.625,3.61,3.259,5.365,4.941q1.272,1.217,2.506,2.473c.055.055.511.628.648.668-.082-.024.012-.49,0-.474-.267.526-.579,1.033-.87,1.546q-3.707,6.526-7.563,12.967-7.608,12.7-15.79,25.053-4.693,7.086-9.571,14.049a2.42,2.42,0,0,0,.861,3.283,2.45,2.45,0,0,0,3.284-.861Z"/>

<path class="b" d="M257.009,323.861c-.746-10.132-1.787-20.241-2.661-30.362-.584-6.77-1.224-13.427-.469-20.2,1.889-16.949,5.768-34.082,8.474-51.1.936-5.883,1.821-11.774,2.8-17.649a92.139,92.139,0,0,1,2.388-11.753c.9-2.961-3.727-4.227-4.628-1.276a82.139,82.139,0,0,0-2.119,10.158c-.875,5.109-1.654,10.234-2.458,15.354-1.425,9.087-3.084,18.118-4.726,27.167-1.576,8.688-3.055,17.405-4.18,26.165a70.249,70.249,0,0,0-.8,9.281c.02,3.48.348,6.967.631,10.432.918,11.266,2.118,22.508,2.948,33.781a2.459,2.459,0,0,0,2.4,2.4,2.42,2.42,0,0,0,2.4-2.4Z"/>

<path class="b" d="M109.835,192.209c-.087-.644.046.352.07.536l.144,1.1q.18,1.392.358,2.785.417,3.258.835,6.515,1.042,8.055,2.17,16.1c1.334,9.4,2.9,18.75,4.595,28.087,1.472,8.087,3.03,16.593,4.043,24.487a56.438,56.438,0,0,1,.641,8.755c-.1,3.545-.411,7.087-.706,10.62-.908,10.893-2.053,21.767-2.856,32.669a2.421,2.421,0,0,0,2.4,2.4,2.447,2.447,0,0,0,2.4-2.4c.721-9.792,1.717-19.563,2.572-29.343.584-6.692,1.386-13.415.657-20.12-1.9-17.448-5.92-34.635-8.476-51.992-1.542-10.474-2.806-20.982-4.219-31.473a2.414,2.414,0,0,0-2.952-1.677,2.466,2.466,0,0,0-1.676,2.953Z"/>

<path class="b" d="M153.269,157.085c8.375,24.917,16.84,49.789,25.979,74.438,2.646,7.139,5.3,14.275,7.871,21.441a2.462,2.462,0,0,0,2.952,1.676,2.421,2.421,0,0,0,1.676-2.952c-4.584-12.768-9.421-25.442-14.028-38.2-4.452-12.331-8.7-24.735-12.9-37.151q-3.475-10.258-6.916-20.527c-.98-2.913-5.617-1.664-4.629,1.276Z"/>

<path class="b" d="M173.971,242.672q-17.055-24.368-31.863-50.207-.531-.93-1.061-1.862c-.157-.276-.314-.551-.469-.828-.062-.11-.418-.923-.381-.594.007.063.045.3-.016.351.343-.3.657-.679.976-1q.658-.667,1.331-1.322c2.021-1.972,4.111-3.871,6.212-5.758a2.422,2.422,0,0,0-.486-3.769c-1.514-.9-3.011-1.825-4.534-2.709a41.858,41.858,0,0,1-4.2-2.284l.861.861-.163-.259.328,1.212c0,.18.25-.376.29-.45q.234-.436.481-.866.494-.855,1.039-1.679a30.483,30.483,0,0,1,2.257-3,48.167,48.167,0,0,1,5.759-5.631,33.83,33.83,0,0,1,3.416-2.543l2.9-1.963c2.544-1.723.145-5.883-2.422-4.144a66.591,66.591,0,0,0-11.973,9.682,41.883,41.883,0,0,0-3.635,4.521,17.64,17.64,0,0,0-2.819,5.039c-.731,2.774,1.93,3.7,3.842,4.737,2.093,1.132,4.107,2.405,6.152,3.619l-.486-3.769c-1.983,1.782-3.958,3.575-5.874,5.43-1.733,1.679-4.154,3.486-3.976,6.15a8.377,8.377,0,0,0,1.447,3.39q1.059,1.864,2.129,3.721,1.9,3.3,3.848,6.583,8.094,13.662,16.848,26.918,4.948,7.493,10.1,14.847a2.465,2.465,0,0,0,3.284.861,2.421,2.421,0,0,0,.861-3.284Z"/>

<path class="b" d="M98.719,254.675c-4.622-13.913-8.7-27.987-12.8-42.06a2.416,2.416,0,0,0-2.952-1.676Q74.116,214.478,65,217.3a98.947,98.947,0,0,1-17.475,4.149,2.449,2.449,0,0,0-2.315,3.038c2.048,10.158,3.98,20.342,6.37,30.427,2.221,9.371,4.589,18.953,8.613,27.74,3.28,7.162,8.289,13.869,15.54,17.355a31.976,31.976,0,0,0,27.735,0c4.389-2.119,8.188-5.353,11.736-8.65,3.417-3.175,6.616-6.568,9.87-9.906,2.158-2.214-1.233-5.612-3.394-3.4-5.438,5.58-10.764,11.7-17.351,15.962a27.258,27.258,0,0,1-24.9,2.4c-6.835-2.642-11.436-8.642-14.545-15.037-3.906-8.038-6.065-17.021-8.171-25.662-2.624-10.763-4.681-21.651-6.87-32.508l-2.314,3.038a102.939,102.939,0,0,0,18.367-4.2q9.3-2.849,18.348-6.475l-2.953-1.676c4.1,14.074,8.183,28.147,12.8,42.06.969,2.917,5.606,1.667,4.628-1.276Z"/>

<path class="b" d="M91.266,232.189c4.4-11.748,7.251-23.959,11.251-35.834a85.772,85.772,0,0,1,3.556-9.551c1.157-2.426,2.809-5.368,5.144-6.843,2.373-1.5,5.2-2.266,7.732-3.459,2.944-1.386,5.967-2.591,9-3.76,7.1-2.733,14.331-5.239,21.062-8.819,2.728-1.451.306-5.6-2.423-4.145-5.977,3.18-12.365,5.453-18.677,7.861-3.312,1.264-6.614,2.562-9.849,4.012-1.281.575-2.531,1.213-3.838,1.726a44.45,44.45,0,0,0-4.457,1.878c-6.057,3.17-8.565,10.434-10.71,16.45-2.139,6-3.934,12.1-5.685,18.222-2.023,7.07-4.155,14.1-6.737,20.986a2.419,2.419,0,0,0,1.676,2.952,2.453,2.453,0,0,0,2.953-1.676Z"/>

<path class="b" d="M76.307,200.361c1.119-5.553,2.035-11.291,1.418-16.964-.593-5.453-2.757-10.369-5.023-15.31-.96-2.093-1.978-4.158-3.022-6.21-1.053-2.068-2.01-4.282-3.248-6.244-1.087-1.725-2.809-3.5-4.864-3.939a6.456,6.456,0,0,0-6.827,3.078c-1.577,2.433-1.123,5.572-.853,8.309a46.755,46.755,0,0,0,1.944,9.689c.938,2.931,5.573,1.678,4.628-1.276a41.45,41.45,0,0,1-1.608-6.982c-.143-1.04-.235-2.088-.3-3.135a14.531,14.531,0,0,1-.1-3.259c.2-1.135,1.432-2.224,2.449-1.556,1.255.825,1.77,2.189,2.477,3.552,1.842,3.549,3.682,7.1,5.34,10.742,1.8,3.944,3.645,7.975,4.184,12.315.662,5.321-.171,10.7-1.222,15.914a2.46,2.46,0,0,0,1.676,2.952,2.423,2.423,0,0,0,2.953-1.676Z"/>

<path class="b" d="M180.184,120.339a19.4,19.4,0,0,0,9.349,2.163,15.2,15.2,0,0,0,9.427-2.778,2.412,2.412,0,0,0,0-3.394,2.462,2.462,0,0,0-3.394,0c.726-.565.155-.128-.031-.008s-.382.232-.579.335c-.164.086-.874.368-.221.126-.266.1-.528.2-.8.291a14.018,14.018,0,0,1-2.235.51c.351-.052-.085.006-.221.02-.22.021-.439.04-.659.054-.529.034-1.059.047-1.589.044-.475,0-.949-.019-1.423-.051-.217-.015-.435-.032-.651-.054-.019,0-.8-.11-.324-.035a16.013,16.013,0,0,1-2.088-.464c-.293-.087-.578-.192-.866-.291-.616-.211.343.179-.212-.083q-.537-.253-1.061-.53a2.453,2.453,0,0,0-3.284.861,2.427,2.427,0,0,0,.861,3.284Z"/>

<path class="b" d="M188.328,98.3a44,44,0,0,1,1.034,4.732l-.086-.638a2.852,2.852,0,0,1,.018.653l.086-.638a1.639,1.639,0,0,1-.072.294l.242-.574a1.12,1.12,0,0,1-.1.189l.376-.486a.975.975,0,0,1-.155.153l.486-.375a3.27,3.27,0,0,1-.375.2l.573-.242a2.733,2.733,0,0,1-.631.184l.638-.085a2.557,2.557,0,0,1-.593,0l.638.085c-.224-.031-.443-.085-.667-.115a1.812,1.812,0,0,0-.957-.043,1.774,1.774,0,0,0-.892.285,2.4,2.4,0,0,0-.861,3.283,2.3,2.3,0,0,0,1.434,1.1c.506.068,1,.2,1.513.22a4.847,4.847,0,0,0,2.228-.529,3.208,3.208,0,0,0,1.78-2.116,5.312,5.312,0,0,0-.023-2.283c-.257-1.524-.609-3.035-1-4.53a2.4,2.4,0,1,0-4.628,1.276Z"/>

<path class="b" d="M163.281,84.9c-.79,2.568-.275,8.476,4.59,8.979,6.43-.039,6.773-7.181,4.608-10.539C170.707,80.591,165.5,79.448,163.281,84.9Z"/>

<path class="b" d="M214.775,84.9c.79,2.568.275,8.475-4.59,8.978-6.43-.039-6.773-7.181-4.608-10.539C207.349,80.591,212.56,79.448,214.775,84.9Z"/>

</g>

</svg>